<svg xmlns="http://www.w3.org/2000/svg" viewBox="0 0 32 32" role="img" aria-label="Rashaad Saleem">
  <style>
    .plate { fill: #17130f }
    .mark { fill: #ede7de }
    @media (prefers-color-scheme: dark) {
      .plate { fill: #ede7de }
      .mark { fill: #17130f }
    }
  </style>
  <rect class="plate" width="32" height="32" rx="7"/>
  <path class="mark" fill-rule="evenodd" transform="translate(-0.9741 -0.7577) scale(0.027)" d="M 299 250.941 L 297.500 251.856 295.750 252.396 L 294 252.937 294 574.500 L 294 896.063 295.410 896.604 L 296.819 897.145 299.932 895.535 L 303.045 893.926 320.722 875.713 L 338.400 857.500 369.772 826.124 L 401.145 794.748 402.073 792.309 L 403 789.870 403 575.017 L 403 360.164 403.607 358.582 L 404.214 357 525.433 357 L 646.651 357 648.826 359.314 L 651 361.629 651 381.913 L 651 402.198 649.373 405.349 L 647.745 408.500 638.623 416.942 L 629.500 425.383 611.881 442.442 L 594.262 459.500 582.481 470.500 L 570.700 481.500 569.600 481.823 L 568.500 482.146 566.500 483.105 L 564.500 484.063 501 483.654 L 437.500 483.245 433.231 482.515 L 428.962 481.786 427.481 483.016 L 426 484.245 426 486.942 L 426 489.640 429.303 493.570 L 432.606 497.500 439.553 507.377 L 446.500 517.253 453.776 527.377 L 461.051 537.500 463.488 541 L 465.925 544.500 474.712 556.728 L 483.500 568.957 493.435 582.728 L 503.370 596.500 504.435 597.715 L 505.500 598.931 506.750 600.423 L 508 601.916 508 602.615 L 508 603.315 511.846 608.408 L 515.692 613.500 522.636 623 L 529.580 632.500 536.898 643.185 L 544.216 653.869 545.678 654.430 L 547.140 654.991 549.520 653.744 L 551.900 652.497 589.661 615.498 L 627.422 578.500 652.384 554 L 677.346 529.500 688.484 518.500 L 699.622 507.500 724.379 483.517 L 749.135 459.535 749.838 459.017 L 750.541 458.500 751.770 455.703 L 753 452.906 752.996 397.203 L 752.991 341.500 775.246 319.663 L 797.500 297.826 813 282.655 L 828.500 267.484 832.622 263.992 L 836.745 260.500 837.416 257.414 L 838.087 254.329 836.293 252.238 L 834.500 250.147 786 251.098 L 737.500 252.048 522.500 251.684 L 307.500 251.319 304 250.672 L 300.500 250.026 299 250.941 M 948.328 323.695 L 940.500 331.508 914.500 358.461 L 888.500 385.414 857.500 416.478 L 826.500 447.542 808.387 466.021 L 790.273 484.500 771.887 502.658 L 753.500 520.815 740.929 533.658 L 728.358 546.500 683.649 590.500 L 638.940 634.500 627.220 646.328 L 615.500 658.156 571.050 702.328 L 526.601 746.500 496.550 776.691 L 466.500 806.882 430 843.986 L 393.500 881.091 343.750 931.026 L 294 980.960 294 985.480 L 294 990 364.441 990 L 434.882 990 435.500 989 L 436.118 988 438.026 988 L 439.935 988 465.276 962.250 L 490.617 936.500 513.058 913.596 L 535.500 890.693 555.836 870.096 L 576.173 849.500 604.836 820.087 L 633.500 790.674 635.278 788.987 L 637.055 787.300 640.894 786.150 L 644.732 785 749.416 785 L 854.099 785 857.050 786.526 L 860 788.051 860 835.326 L 860 882.600 858.800 883.800 L 857.600 885 735.330 885 L 613.061 885 609.489 887.006 L 605.917 889.012 559.884 935.138 L 513.850 981.264 512.925 983.697 L 512 986.131 513.035 988.065 L 514.070 990 734.963 990 L 955.855 990 957.927 987.365 L 960 984.730 960 837.520 L 960 690.310 958.115 688.604 L 956.231 686.899 847.194 687.057 L 738.158 687.216 737.079 686.549 L 736 685.882 736 684.365 L 736 682.847 744.629 674.674 L 753.257 666.500 774.850 645.500 L 796.442 624.500 812.549 608.500 L 828.656 592.500 868.429 553.500 L 908.202 514.500 922.375 500.500 L 936.548 486.500 948.024 475.500 L 959.500 464.500 960.769 462 L 962.038 459.500 961.769 388 L 961.500 316.500 958.828 316.191 L 956.156 315.882 948.328 323.695"/>
</svg>
